# xmcd
#
# Track frame offsets:
#	150
#	17343
#	31402
#	46427
#	65543
#	77610
#	91377
#	105503
#	125660
#	136440
#	150724
#	163209
#
# Disc length: 2468 seconds
#
# Revision: 0
# Processed by: cddbd v1.4PL0 Copyright (c) Steve Scherf et al.
# Submitted via: dBpowerAMP V4.0
#
DISCID=9709a20c
DTITLE=Laurel Edwards - When A Heart Learns To Fly
DYEAR=1900
DGENRE=
TTITLE0=The One
TTITLE1=Freedom Road
TTITLE2=Lost Together
TTITLE3=More Than Anyone Deserves
TTITLE4=Come On Down
TTITLE5=Different Drum
TTITLE6=Echo Of An Old Flame
TTITLE7=When A Heart Learns To Fly
TTITLE8=Hoping That Your Hoping
TTITLE9=One Day Stronger
TTITLE10=Emotional Moon
TTITLE11=Back In The Saddle
EXTD=
EXTT0=
EXTT1=
EXTT2=
EXTT3=
EXTT4=
EXTT5=
EXTT6=
EXTT7=
EXTT8=
EXTT9=
EXTT10=
EXTT11=
PLAYORDER=
